<?xml version="1.0" encoding="utf-8"?>
<svg xmlns="http://www.w3.org/2000/svg" viewBox="575.095 112.522 74.029 70.197">
  <path d="M 648.221 148.036 A 35.847 34.509 0 0 1 612.374 182.545 A 35.847 34.509 0 0 1 576.527 148.036 A 35.847 34.509 0 0 1 612.374 113.527 A 35.847 34.509 0 0 1 648.221 148.036 Z" style="fill: rgb(156, 39, 176); paint-order: fill; stroke: rgb(156, 39, 176);"/>
  <path d="M 603.884 137.964 L 603.884 157.508 L 599.964 157.508 L 599.964 144.796 L 594.728 157.508 L 591.76 157.508 L 586.496 144.796 L 586.496 157.508 L 582.576 157.508 L 582.576 137.964 L 587.028 137.964 L 593.244 152.496 L 599.46 137.964 Z M 614.492 157.704 Q 612.448 157.704 610.81 157.004 Q 609.172 156.304 608.22 154.988 Q 607.268 153.672 607.24 151.88 L 611.44 151.88 Q 611.524 153.084 612.294 153.784 Q 613.064 154.484 614.408 154.484 Q 615.78 154.484 616.564 153.826 Q 617.348 153.168 617.348 152.104 Q 617.348 151.236 616.816 150.676 Q 616.284 150.116 615.486 149.794 Q 614.688 149.472 613.288 149.08 Q 611.384 148.52 610.194 147.974 Q 609.004 147.428 608.15 146.322 Q 607.296 145.216 607.296 143.368 Q 607.296 141.632 608.164 140.344 Q 609.032 139.056 610.6 138.37 Q 612.168 137.684 614.184 137.684 Q 617.208 137.684 619.098 139.154 Q 620.988 140.624 621.184 143.256 L 616.872 143.256 Q 616.816 142.248 616.018 141.59 Q 615.22 140.932 613.904 140.932 Q 612.756 140.932 612.07 141.52 Q 611.384 142.108 611.384 143.228 Q 611.384 144.012 611.902 144.53 Q 612.42 145.048 613.19 145.37 Q 613.96 145.692 615.36 146.112 Q 617.264 146.672 618.468 147.232 Q 619.672 147.792 620.54 148.912 Q 621.408 150.032 621.408 151.852 Q 621.408 153.42 620.596 154.764 Q 619.784 156.108 618.216 156.906 Q 616.648 157.704 614.492 157.704 Z M 641.504 157.508 L 637.584 157.508 L 628.708 144.096 L 628.708 157.508 L 624.788 157.508 L 624.788 137.936 L 628.708 137.936 L 637.584 151.376 L 637.584 137.936 L 641.504 137.936 Z" style="fill: rgb(255, 255, 255); paint-order: stroke; stroke: rgb(255, 255, 255); text-wrap-mode: nowrap;"/>
</svg>