<?xml version="1.0" encoding="utf-8"?>
<svg xmlns="http://www.w3.org/2000/svg" viewBox="130.356 76.782 112.21 26.698">
  <path d="M 138.477 100.314 L 134.453 80.294 L 139.325 80.294 L 142.626 96.814 L 142.99 96.814 L 154.529 80.294 L 159.401 80.294 L 145.393 100.314 Z M 155.947 100.314 L 159.542 85.894 L 163.602 85.894 L 160.007 100.314 Z M 160.108 83.514 L 160.897 80.35 L 165.013 80.35 L 164.224 83.514 Z M 166.924 100.314 Q 164.656 100.314 163.738 99.166 Q 162.821 98.018 163.351 95.89 Q 163.875 93.79 165.365 92.642 Q 166.855 91.494 169.123 91.494 L 179.875 91.494 L 180.043 90.822 Q 180.469 89.114 178.789 89.114 L 166.917 89.114 L 167.719 85.894 L 180.655 85.894 Q 183.203 85.894 183.978 87.056 Q 184.752 88.218 184.228 90.318 L 181.736 100.314 Z M 168.455 97.094 L 178.479 97.094 L 179.072 94.714 L 169.048 94.714 Q 168.516 94.714 168.142 95.036 Q 167.768 95.358 167.635 95.89 Q 167.502 96.422 167.713 96.758 Q 167.923 97.094 168.455 97.094 Z" style="fill: rgb(144, 202, 249); text-wrap-mode: nowrap;"/>
  <path d="M 189.467 100.161 L 184.347 100.161 L 189.397 79.905 L 204.437 79.905 L 203.4 84.065 L 193.48 84.065 L 192.323 88.705 L 201.603 88.705 L 200.566 92.865 L 191.286 92.865 Z M 217.588 95.809 L 216.503 100.161 L 201.783 100.161 L 206.833 79.905 L 211.953 79.905 L 207.988 95.809 Z M 234.939 95.777 L 233.933 99.809 Q 232.318 100.129 230.806 100.289 Q 229.294 100.449 227.278 100.449 Q 224.686 100.449 223.022 100.001 Q 221.357 99.553 220.568 98.417 Q 219.78 97.281 219.818 95.201 Q 219.857 93.121 220.671 89.857 Q 221.453 86.721 222.435 84.705 Q 223.418 82.689 224.765 81.585 Q 226.112 80.481 227.996 80.049 Q 229.88 79.617 232.472 79.617 Q 234.488 79.617 235.924 79.761 Q 237.36 79.905 238.808 80.257 L 237.771 84.417 L 237.659 84.481 Q 236.395 84.161 235.183 84.017 Q 233.971 83.873 232.147 83.873 Q 230.675 83.873 229.679 84.081 Q 228.683 84.289 227.987 84.897 Q 227.292 85.505 226.789 86.689 Q 226.285 87.873 225.791 89.857 Q 225.272 91.937 225.165 93.201 Q 225.058 94.465 225.442 95.105 Q 225.827 95.745 226.715 95.969 Q 227.603 96.193 229.075 96.193 Q 230.867 96.193 232.159 96.081 Q 233.451 95.969 234.811 95.649 Z" style="fill: rgb(209, 152, 16); text-wrap-mode: nowrap;"/>
</svg>