<?xml version="1.0" encoding="utf-8"?>
<svg xmlns="http://www.w3.org/2000/svg" viewBox="272.289 130.01 198.323 33.059">
  <path d="M 311.552 154.93 Q 309.508 154.93 307.87 154.23 Q 306.232 153.53 305.28 152.214 Q 304.328 150.898 304.3 149.106 L 308.5 149.106 Q 308.584 150.31 309.354 151.01 Q 310.124 151.71 311.468 151.71 Q 312.84 151.71 313.624 151.052 Q 314.408 150.394 314.408 149.33 Q 314.408 148.462 313.876 147.902 Q 313.344 147.342 312.546 147.02 Q 311.748 146.698 310.348 146.306 Q 308.444 145.746 307.254 145.2 Q 306.064 144.654 305.21 143.548 Q 304.356 142.442 304.356 140.594 Q 304.356 138.858 305.224 137.57 Q 306.092 136.282 307.66 135.596 Q 309.228 134.91 311.244 134.91 Q 314.268 134.91 316.158 136.38 Q 318.048 137.85 318.244 140.482 L 313.932 140.482 Q 313.876 139.474 313.078 138.816 Q 312.28 138.158 310.964 138.158 Q 309.816 138.158 309.13 138.746 Q 308.444 139.334 308.444 140.454 Q 308.444 141.238 308.962 141.756 Q 309.48 142.274 310.25 142.596 Q 311.02 142.918 312.42 143.338 Q 314.324 143.898 315.528 144.458 Q 316.732 145.018 317.6 146.138 Q 318.468 147.258 318.468 149.078 Q 318.468 150.646 317.656 151.99 Q 316.844 153.334 315.276 154.132 Q 313.708 154.93 311.552 154.93 Z M 330.584 138.998 Q 332.348 138.998 333.72 139.768 Q 335.092 140.538 335.862 142.036 Q 336.632 143.534 336.632 145.634 L 336.632 154.734 L 332.712 154.734 L 332.712 146.166 Q 332.712 144.318 331.788 143.324 Q 330.864 142.33 329.268 142.33 Q 327.644 142.33 326.706 143.324 Q 325.768 144.318 325.768 146.166 L 325.768 154.734 L 321.848 154.734 L 321.848 134.014 L 325.768 134.014 L 325.768 141.154 Q 326.524 140.146 327.784 139.572 Q 329.044 138.998 330.584 138.998 Z M 339.35 146.922 Q 339.35 144.57 340.288 142.75 Q 341.226 140.93 342.836 139.95 Q 344.446 138.97 346.434 138.97 Q 348.17 138.97 349.472 139.67 Q 350.774 140.37 351.558 141.434 L 351.558 139.222 L 355.506 139.222 L 355.506 154.734 L 351.558 154.734 L 351.558 152.466 Q 350.802 153.558 349.472 154.272 Q 348.142 154.986 346.406 154.986 Q 344.446 154.986 342.836 153.978 Q 341.226 152.97 340.288 151.136 Q 339.35 149.302 339.35 146.922 Z M 351.558 146.978 Q 351.558 145.55 350.998 144.528 Q 350.438 143.506 349.486 142.96 Q 348.534 142.414 347.442 142.414 Q 346.35 142.414 345.426 142.946 Q 344.502 143.478 343.928 144.5 Q 343.354 145.522 343.354 146.922 Q 343.354 148.322 343.928 149.372 Q 344.502 150.422 345.44 150.982 Q 346.378 151.542 347.442 151.542 Q 348.534 151.542 349.486 150.996 Q 350.438 150.45 350.998 149.428 Q 351.558 148.406 351.558 146.978 Z M 363.26 141.63 Q 364.016 140.398 365.234 139.698 Q 366.452 138.998 368.02 138.998 L 368.02 143.114 L 366.984 143.114 Q 365.136 143.114 364.198 143.982 Q 363.26 144.85 363.26 147.006 L 363.26 154.734 L 359.34 154.734 L 359.34 139.222 L 363.26 139.222 L 363.26 141.63 Z M 385.063 146.642 Q 385.063 147.482 384.951 148.154 L 373.611 148.154 Q 373.751 149.834 374.787 150.786 Q 375.823 151.738 377.335 151.738 Q 379.519 151.738 380.443 149.862 L 384.671 149.862 Q 383.999 152.102 382.095 153.544 Q 380.191 154.986 377.419 154.986 Q 375.179 154.986 373.401 153.992 Q 371.623 152.998 370.629 151.178 Q 369.635 149.358 369.635 146.978 Q 369.635 144.57 370.615 142.75 Q 371.595 140.93 373.359 139.95 Q 375.123 138.97 377.419 138.97 Q 379.631 138.97 381.381 139.922 Q 383.131 140.874 384.097 142.624 Q 385.063 144.374 385.063 146.642 Z M 381.003 145.522 Q 380.975 144.01 379.911 143.1 Q 378.847 142.19 377.307 142.19 Q 375.851 142.19 374.857 143.072 Q 373.863 143.954 373.639 145.522 Z M 396.519 138.998 Q 399.291 138.998 400.999 140.748 Q 402.707 142.498 402.707 145.634 L 402.707 154.734 L 398.787 154.734 L 398.787 146.166 Q 398.787 144.318 397.863 143.324 Q 396.939 142.33 395.343 142.33 Q 393.719 142.33 392.781 143.324 Q 391.843 144.318 391.843 146.166 L 391.843 154.734 L 387.923 154.734 L 387.923 139.222 L 391.843 139.222 L 391.843 141.154 Q 392.627 140.146 393.845 139.572 Q 395.063 138.998 396.519 138.998 Z M 413.311 154.986 Q 411.071 154.986 409.279 153.992 Q 407.487 152.998 406.465 151.178 Q 405.443 149.358 405.443 146.978 Q 405.443 144.598 406.493 142.778 Q 407.543 140.958 409.363 139.964 Q 411.183 138.97 413.423 138.97 Q 415.663 138.97 417.483 139.964 Q 419.303 140.958 420.353 142.778 Q 421.403 144.598 421.403 146.978 Q 421.403 149.358 420.325 151.178 Q 419.247 152.998 417.413 153.992 Q 415.579 154.986 413.311 154.986 Z M 413.311 151.57 Q 414.375 151.57 415.313 151.052 Q 416.251 150.534 416.811 149.498 Q 417.371 148.462 417.371 146.978 Q 417.371 144.766 416.209 143.576 Q 415.047 142.386 413.367 142.386 Q 411.687 142.386 410.553 143.576 Q 409.419 144.766 409.419 146.978 Q 409.419 149.19 410.525 150.38 Q 411.631 151.57 413.311 151.57 Z M 428.854 142.442 L 428.854 149.946 Q 428.854 150.73 429.232 151.08 Q 429.61 151.43 430.506 151.43 L 432.326 151.43 L 432.326 154.734 L 429.862 154.734 Q 424.906 154.734 424.906 149.918 L 424.906 142.442 L 423.058 142.442 L 423.058 139.222 L 424.906 139.222 L 424.906 135.386 L 428.854 135.386 L 428.854 139.222 L 432.326 139.222 L 432.326 142.442 Z M 449.568 146.642 Q 449.568 147.482 449.456 148.154 L 438.116 148.154 Q 438.256 149.834 439.292 150.786 Q 440.328 151.738 441.84 151.738 Q 444.024 151.738 444.948 149.862 L 449.176 149.862 Q 448.504 152.102 446.6 153.544 Q 444.696 154.986 441.924 154.986 Q 439.684 154.986 437.906 153.992 Q 436.128 152.998 435.134 151.178 Q 434.14 149.358 434.14 146.978 Q 434.14 144.57 435.12 142.75 Q 436.1 140.93 437.864 139.95 Q 439.628 138.97 441.924 138.97 Q 444.136 138.97 445.886 139.922 Q 447.636 140.874 448.602 142.624 Q 449.568 144.374 449.568 146.642 Z M 445.508 145.522 Q 445.48 144.01 444.416 143.1 Q 443.352 142.19 441.812 142.19 Q 440.356 142.19 439.362 143.072 Q 438.368 143.954 438.144 145.522 Z" style="fill: rgb(255, 255, 255); paint-order: stroke; stroke: rgb(255, 255, 255); text-wrap-mode: nowrap;"/>
  <path d="M 289.39 149.967 Q 289.255 149.913 288.985 149.697 Q 288.715 149.481 288.526 148.954 Q 288.337 148.428 288.337 147.483 Q 288.364 146.673 288.378 146.214 Q 288.391 145.755 288.175 145.755 Q 287.959 145.755 287.352 146.173 Q 286.744 146.592 285.961 147.294 Q 285.178 147.996 284.368 148.86 Q 284.098 149.157 283.842 149.413 Q 283.585 149.67 283.342 149.737 Q 283.099 149.805 282.775 149.562 L 282.478 149.319 Q 282.343 149.184 282.316 149.035 Q 282.289 148.887 282.343 148.698 L 282.964 146.916 Q 283.396 145.944 283.558 145.498 Q 283.72 145.053 283.72 144.931 Q 283.72 144.81 283.639 144.837 Q 283.423 144.864 282.991 145.093 Q 282.559 145.323 282.424 145.539 Q 282.316 145.539 282.1 145.782 Q 281.884 146.025 281.56 146.241 Q 281.371 146.565 280.818 147.078 Q 280.264 147.591 279.724 148.131 Q 279.373 148.428 279.036 148.86 Q 278.698 149.292 278.469 149.616 Q 278.239 149.94 278.158 149.94 Q 277.807 149.94 277.524 149.751 Q 277.24 149.562 277.105 149.13 Q 276.889 148.671 277.105 147.847 Q 277.321 147.024 277.591 145.701 Q 277.699 145.296 277.726 145.107 Q 277.753 144.918 277.821 144.715 Q 277.888 144.513 278.064 144.081 Q 278.239 143.649 278.617 142.785 Q 278.806 142.272 278.847 142.015 Q 278.887 141.759 278.887 141.651 Q 278.887 141.381 279.036 141.192 Q 279.184 141.003 279.4 140.922 Q 279.616 140.841 279.805 140.895 Q 280.102 140.949 280.332 141.192 Q 280.561 141.435 280.588 141.867 Q 280.615 142.191 280.534 142.447 Q 280.453 142.704 280.372 142.92 L 280.075 143.649 Q 279.94 143.946 279.724 144.513 Q 279.508 145.08 279.346 145.552 Q 279.184 146.025 279.184 146.106 Q 279.211 146.187 279.373 146.065 Q 279.535 145.944 279.792 145.714 Q 280.048 145.485 280.318 145.269 Q 280.885 144.729 281.601 144.229 Q 282.316 143.73 282.964 143.379 Q 283.612 143.028 283.963 142.92 Q 284.422 142.92 284.598 143.082 Q 284.773 143.244 285.205 143.676 Q 285.394 143.865 285.421 144.162 Q 285.448 144.459 285.394 144.729 Q 285.367 144.837 285.232 145.255 Q 285.097 145.674 284.976 146.052 Q 284.854 146.43 284.854 146.43 Q 284.854 146.43 285.165 146.16 Q 285.475 145.89 285.853 145.579 Q 286.231 145.269 286.42 145.107 Q 287.473 144.297 288.256 144.081 Q 289.039 143.865 289.525 144.648 Q 289.849 144.945 289.863 145.296 Q 289.876 145.647 289.876 146.511 Q 289.903 146.862 289.93 147.348 Q 289.957 147.834 289.998 148.225 Q 290.038 148.617 290.092 148.698 Q 290.173 148.806 290.403 148.873 Q 290.632 148.941 291.01 148.995 Q 291.415 149.049 291.496 149.346 Q 291.577 149.643 291.145 149.913 Q 290.74 150.156 290.254 150.129 Q 289.768 150.102 289.39 149.967 Z M 291.895 157.608 Q 291.301 157.716 291.085 157.635 Q 290.869 157.554 290.491 157.365 Q 290.194 157.149 290.032 157.041 Q 289.87 156.933 289.87 156.825 Q 289.87 156.744 289.924 156.649 Q 289.978 156.555 290.127 156.487 Q 290.275 156.42 290.545 156.42 Q 290.734 156.528 291.18 156.528 Q 291.625 156.528 291.733 156.42 Q 291.733 156.42 291.99 156.271 Q 292.246 156.123 292.678 156.042 Q 293.515 155.637 294.163 155.016 Q 294.811 154.395 295.405 153.396 Q 295.648 153.018 295.918 152.518 Q 296.188 152.019 296.296 151.533 Q 296.512 150.993 296.796 150.075 Q 297.079 149.157 297.295 148.252 Q 297.511 147.348 297.538 146.889 Q 297.7 145.377 298.065 144.094 Q 298.429 142.812 298.699 141.219 Q 298.861 140.841 298.942 140.773 Q 299.023 140.706 299.293 140.706 Q 299.59 140.706 299.739 140.746 Q 299.887 140.787 300.076 141.084 Q 300.346 141.597 300.279 142.285 Q 300.211 142.974 299.86 143.487 Q 299.59 143.865 299.388 144.661 Q 299.185 145.458 298.996 146.646 Q 298.861 147.24 298.713 148.036 Q 298.564 148.833 298.402 149.805 Q 298.294 150.075 298.105 150.628 Q 297.916 151.182 297.862 151.506 Q 297.835 151.614 297.7 151.938 Q 297.565 152.262 297.43 152.572 Q 297.295 152.883 297.241 152.991 Q 296.188 155.178 294.838 156.339 Q 293.488 157.5 291.895 157.608 Z M 293.947 149.778 Q 293.65 149.778 293.34 149.454 Q 293.029 149.13 292.921 148.941 Q 292.813 148.671 292.651 148.428 Q 292.489 148.185 292.422 147.834 Q 292.354 147.483 292.462 146.97 Q 292.57 146.619 292.773 145.957 Q 292.975 145.296 293.232 144.513 Q 293.488 143.73 293.772 142.96 Q 294.055 142.191 294.298 141.583 Q 294.541 140.976 294.73 140.706 Q 294.892 140.49 295.095 140.436 Q 295.297 140.382 295.513 140.476 Q 295.729 140.571 295.891 140.841 Q 296.188 141.219 296.134 141.489 Q 296.08 141.759 295.648 142.542 Q 295.54 142.839 295.378 143.176 Q 295.216 143.514 295.216 143.622 Q 295.189 143.676 295.122 143.986 Q 295.054 144.297 294.973 144.567 Q 294.892 144.837 294.811 144.837 Q 294.703 144.945 294.568 145.444 Q 294.433 145.944 294.325 146.551 Q 294.217 147.159 294.19 147.604 Q 294.163 148.05 294.271 148.05 Q 295.108 148.05 296.013 147.402 Q 296.917 146.754 297.835 145.512 L 298.294 147.429 Q 297.916 147.618 297.592 147.82 Q 297.268 148.023 296.998 148.293 Q 296.917 148.401 296.62 148.59 Q 296.323 148.779 296.04 148.927 Q 295.756 149.076 295.675 149.076 Q 295.675 149.076 295.608 149.089 Q 295.54 149.103 295.54 149.211 Q 295.54 149.265 295.189 149.413 Q 294.838 149.562 294.46 149.67 Q 294.082 149.778 293.947 149.778 Z" style="fill: rgb(255, 255, 255); text-wrap-mode: nowrap;"/>
</svg>